<svg width="206" height="127" viewBox="0 0 206 127" fill="none" xmlns="http://www.w3.org/2000/svg">
<g clip-path="url(#clip0_17_358)">
<path d="M150.99 78.0556H158.146V119.059H169.205C167.889 118.525 166.739 117.839 165.762 116.979C163.251 114.758 162.016 111.921 162.016 108.477C162.016 106.455 162.476 104.616 163.42 102.935C164.367 101.266 165.611 99.926 167.145 98.9089C168.667 97.9008 170.398 97.1371 172.313 96.624C173.729 96.2467 175.853 95.9147 178.715 95.5737C184.513 94.8945 188.785 94.0887 191.524 93.156C191.554 92.2083 191.566 91.5956 191.566 91.342C191.566 88.5018 190.891 86.4856 189.536 85.3206C187.702 83.742 184.985 82.9603 181.384 82.9603C178.007 82.9603 175.52 83.5247 173.911 84.6716C172.313 85.8186 171.121 87.8499 170.355 90.7595L163.29 89.848C163.916 86.9112 164.981 84.563 166.437 82.7611C167.898 80.9652 170.013 79.5798 172.788 78.6079C175.554 77.636 178.761 77.1471 182.407 77.1471C186.053 77.1471 188.964 77.5606 191.218 78.3936C193.472 79.2176 195.152 80.268 196.22 81.5206C197.224 82.7067 197.917 84.1827 198.356 85.9484V62.7197H158.152V70.3469H150.996V62.7197H142.881V119.062H150.996V78.0586L150.99 78.0556Z" fill="#CC8E00"/>
<path d="M84.0234 82.8728C80.7313 82.8728 77.9536 83.9503 75.7024 86.1265C73.4603 88.2906 72.2106 91.1791 71.9746 94.8191H95.6516C95.3278 91.3119 94.4261 88.7041 92.9404 86.9475C90.6469 84.231 87.6786 82.8728 84.0234 82.8728Z" fill="#CC8E00"/>
<path d="M69.5823 114.719C65.9513 111.003 64.1328 105.785 64.1328 99.0599C64.1328 92.3351 65.9725 86.7302 69.6489 82.903C73.3222 79.0698 78.0788 77.1442 83.9367 77.1442C89.7947 77.1442 94.2487 79.0426 97.8464 82.7913C101.438 86.5551 103.235 91.8492 103.235 98.6796C103.235 99.1021 103.22 99.7058 103.202 100.551H71.5491C71.8153 105.078 73.1376 108.546 75.5129 110.958C77.8821 113.36 80.8443 114.574 84.3815 114.574C87.023 114.574 89.2742 113.886 91.1351 112.53C92.999 111.166 94.4847 108.999 95.5709 106.023L102.996 106.935C101.831 111.154 99.6588 114.456 96.4938 116.789C95.1957 117.743 93.7464 118.485 92.1639 119.059H117.901C116.909 118.658 115.95 118.156 115.015 117.574C112.18 115.76 109.971 113.231 108.412 109.974C106.854 106.735 106.086 102.987 106.086 98.761C106.086 94.5355 106.791 90.8984 108.204 87.5451C109.611 84.1918 111.717 81.6293 114.552 79.8304C117.372 78.0436 120.531 77.1442 124.017 77.1442C126.576 77.1442 128.846 77.6754 130.843 78.7348C132.846 79.7851 134.468 81.1524 135.726 82.8457V62.7168H58.3535V119.059H76.4902C73.8396 118.123 71.5218 116.699 69.5883 114.719H69.5823Z" fill="#CC8E00"/>
<path d="M190.363 108.202C191.122 106.621 191.515 104.281 191.515 101.197L191.558 98.6343C188.931 99.6846 185.022 100.557 179.79 101.281C176.834 101.692 174.743 102.169 173.512 102.676C172.283 103.204 171.33 103.974 170.668 104.961C169.999 105.96 169.666 107.07 169.666 108.278C169.666 110.155 170.398 111.703 171.851 112.953C173.294 114.2 175.412 114.821 178.214 114.821C181.016 114.821 183.449 114.23 185.615 113.05C187.76 111.872 189.349 110.252 190.363 108.208V108.202Z" fill="#CC8E00"/>
<path d="M184.433 118.92C184.294 118.977 184.151 119.008 184.027 119.059H193.38C192.751 117.658 192.339 116.053 192.149 114.239C189.471 116.454 186.893 118.003 184.436 118.923L184.433 118.92Z" fill="#CC8E00"/>
<path d="M50.8453 119.059V71.6689L33.8887 119.059H50.8453Z" fill="#CC8E00"/>
<path d="M130.564 119.059H136.235V114.175C134.737 116.433 132.843 118.051 130.564 119.059Z" fill="#CC8E00"/>
<path d="M9.87695 70.8359V119.059H26.6793L9.87695 70.8359Z" fill="#CC8E00"/>
<path d="M124.741 82.9603C121.537 82.9603 118.853 84.231 116.702 86.7664C114.563 89.3047 113.482 93.307 113.482 98.7852C113.482 104.263 114.626 108.024 116.923 110.644C119.225 113.267 121.937 114.577 125.059 114.577C128.182 114.577 130.89 113.321 133.087 110.822C135.292 108.326 136.397 104.502 136.397 99.3647C136.397 93.7084 135.271 89.5643 133.035 86.9263C130.793 84.2763 128.018 82.9633 124.741 82.9633V82.9603Z" fill="#CC8E00"/>
<path d="M30.6997 111.19C31.3745 109.12 32.4093 106.059 33.8254 102.048L47.7683 62.7168H14.1758L27.9069 102.742C29.1777 106.512 30.1157 109.325 30.6997 111.19Z" fill="#CC8E00"/>
<path d="M101.443 26.7118C101.658 26.5397 101.882 26.3828 102.115 26.2379C101.885 26.3798 101.661 26.5397 101.443 26.7118Z" fill="#CC8E00"/>
<path d="M116.309 55.3431C116.602 55.2284 116.887 55.1107 117.165 54.9839C116.89 55.1107 116.602 55.2284 116.309 55.3431Z" fill="#CC8E00"/>
<path d="M197.779 55.3431C198.154 55.1499 198.221 55.0654 198.563 54.9024C201.458 53.5291 202.663 51.8359 203.988 49.6205C205.334 47.4111 205.997 45.1353 205.997 42.7992C205.997 40.463 205.368 38.3774 204.106 36.4336C202.841 34.4989 201.004 33.0199 198.614 31.9726C196.227 30.9403 193.8 30.1164 188.895 29.5338C185.67 29.1294 183.57 28.6706 182.592 28.1635C181.621 27.6655 181.14 26.914 181.14 25.9119C181.14 25.0306 181.518 24.279 182.281 23.6452C183.037 23.0234 184.263 22.7155 185.933 22.7155C187.603 22.7155 188.995 23.1079 190.154 23.9319C190.998 24.5507 191.606 25.4954 191.966 26.7902L205.9 25.3203C204.929 22.6914 203.719 20.5997 202.26 19.0544C200.805 17.5211 198.98 16.3741 196.792 15.6347C194.599 14.8982 191.231 14.5421 186.653 14.5421C182.075 14.5421 178.843 15.0129 176.262 15.9667C173.681 16.9205 171.654 18.3572 170.187 20.2828C168.71 22.2236 167.984 24.5084 167.984 27.1705C167.984 29.6183 168.662 31.7915 170.026 33.693C171.397 35.5945 173.055 36.9437 175.055 37.7496C177.049 38.5434 180.607 39.4126 185.724 40.3544C189.149 40.9942 191.267 41.5254 192.057 41.9661C193.189 42.5698 193.739 43.427 193.739 44.5467C193.739 45.5337 193.328 46.3607 192.475 47.0247C191.391 47.9151 189.86 48.3498 187.872 48.3498C186.06 48.3498 184.605 47.9604 183.515 47.1606C182.423 46.3637 181.582 45.0629 180.983 43.2096L167.863 44.6826C168.71 48.5701 169.164 50.8791 172.09 53.6861C172.898 54.4618 174.108 54.8843 175.403 55.3341H168.171V15.4324H152.259V34.9064C152.259 38.5826 151.992 41.4409 150.888 42.8595C149.765 44.2811 147.121 44.6916 145.363 44.6916C143.759 44.6916 142.509 44.1513 141.608 43.0859C140.721 42.0265 140.292 40.2246 140.292 37.6802V15.4324H125.498V24.7136C124.158 21.9549 122.327 19.7395 120.007 18.0765C116.727 15.7222 111.955 14.5451 105.698 14.5451C101.216 14.5451 97.552 15.1608 94.6836 16.4043C92.8832 17.1951 91.1313 18.3964 89.4126 20.0142C87.7091 21.6169 86.3596 23.4399 85.3762 25.4773C84.4412 27.3878 83.833 29.6274 83.5456 32.205C83.2853 30.2824 82.8043 28.4865 82.0871 26.8083C80.9676 24.1613 79.3942 21.9519 77.3669 20.141C75.2428 18.2757 72.8221 16.8601 70.111 15.9244C67.3878 14.9797 64.2893 14.5209 60.8066 14.5209C57.3239 14.5209 54.0591 15.0612 51.1876 16.1206C48.3282 17.1921 45.9287 18.6499 43.9892 20.5152C41.9437 22.4228 40.4157 24.6322 39.399 27.1403C38.3945 29.6334 37.874 32.362 37.874 35.3289C37.874 38.7637 38.461 41.8273 39.629 44.4864C40.7788 47.1545 42.4491 49.4514 44.6307 51.3711C46.5702 53.0854 48.8759 54.3984 51.5537 55.3341H16.4816V33.0773H35.5351L39.8862 21.804H16.4816V11.9916H205.982V0H6.39958C2.86544 0 0 2.84623 0 6.35649V127H206V55.3431H197.776H197.779ZM146.134 55.1469C146.655 54.8602 147.172 54.5252 147.693 54.1388C148.08 53.8491 148.47 53.5352 148.858 53.1911C150.02 52.1618 151.178 50.8851 152.331 49.3669V55.3431H145.765C145.892 55.2797 146.016 55.2163 146.137 55.1469H146.134ZM126.439 48.4011C127.014 50.2603 127.852 51.8057 128.954 53.0311C129.804 53.9758 130.775 54.7485 131.865 55.3431H116.306C116.599 55.2284 116.884 55.1107 117.162 54.9839C117.504 54.827 117.84 54.661 118.167 54.4889C118.82 54.1449 119.444 53.7676 120.037 53.3601C121.516 52.3399 122.805 51.1236 123.901 49.708C124.488 48.9504 125.02 48.1475 125.498 47.2994C125.659 47.0157 125.81 46.729 125.958 46.4362C126.091 47.1274 126.255 47.7823 126.445 48.4011H126.439ZM100.233 27.913C100.514 27.5689 100.811 27.2581 101.126 26.9774C101.231 26.8838 101.337 26.7932 101.443 26.7087C101.658 26.5367 101.882 26.3797 102.115 26.2349C103.268 25.5195 104.602 25.1634 106.118 25.1634C108.036 25.1634 109.568 25.601 110.717 26.4703C111.855 27.3516 112.63 28.6585 113.068 30.4001L125.501 30.385V39.968L113.689 40.0314C113.044 42.1774 112.07 43.7499 110.751 44.7701C109.443 45.8174 107.825 46.3215 105.9 46.3215C103.595 46.3215 101.7 45.4673 100.212 43.7499C98.72 42.0385 97.9756 39.5273 97.9756 36.2193C97.9756 32.5038 98.72 29.7361 100.233 27.916V27.913ZM77.3669 51.3439C78.3805 50.4203 79.2822 49.4001 80.0689 48.2894C80.4623 47.734 80.8284 47.1545 81.1643 46.5539C81.5001 45.9533 81.8088 45.3285 82.0871 44.6795C82.2596 44.2811 82.42 43.8737 82.5682 43.4541C83.007 42.2015 83.3247 40.8584 83.5244 39.4338C83.7665 41.8152 84.2657 43.8284 85.0131 45.4734C85.706 46.9795 86.5684 48.3679 87.585 49.6355C88.1962 50.3962 88.8649 51.1115 89.5881 51.7815C90.0178 52.1739 90.4626 52.5422 90.9255 52.8832C92.3174 53.9155 93.8696 54.7304 95.5792 55.3431H70.5195C73.1549 54.4044 75.4425 53.0643 77.3669 51.3439ZM60.9337 24.8223C65.6449 24.8223 69.4635 29.5851 69.4635 35.4587C69.4635 41.3323 65.6449 46.0951 60.9337 46.0951C56.2225 46.0951 52.404 41.3323 52.404 35.4587C52.404 29.5851 56.2225 24.8223 60.9337 24.8223ZM204.221 125.264H1.93954V57.0816H204.221V125.264Z" fill="#CC8E00"/>
</g>
<defs>
<clipPath id="clip0_17_358">
<rect width="206" height="127" fill="white"/>
</clipPath>
</defs>
</svg>
