<svg width="267" height="66" viewBox="0 0 267 66" fill="none" xmlns="http://www.w3.org/2000/svg">
<path d="M171.945 3.12402C177.103 -0.0211486 184.263 -0.671898 190.083 0.637695C193.785 1.47017 197.136 3.44173 199.348 6.55566C200.546 8.24074 200.826 9.39168 200.831 9.41113H203.395L200.486 4.6709V1.11816H212.383V65.0479H197.79V46.3184L200.803 43.3438L203.028 39.5127H200.479C200.089 40.2024 199.633 40.8852 199.117 41.5645C197.571 43.6019 195.454 45.291 192.779 46.625C190.108 47.966 186.886 48.6347 183.118 48.6348C178.921 48.6348 175.212 47.66 171.99 45.7129C168.772 43.7693 166.261 40.9685 164.468 37.3252C162.674 33.6749 161.779 29.3593 161.779 24.375C161.779 19.3906 162.674 15.0887 164.468 11.4697C166.265 7.8508 168.755 5.07108 171.945 3.12402ZM101.577 0.115234C109.483 0.115234 115.334 1.64759 119.134 4.71973C122.93 7.79178 124.831 12.3966 124.831 18.5371V47.542H113.395V43.8047L115.968 39.5166H113.411C113.035 40.1748 112.604 40.8298 112.109 41.4775C110.563 43.5116 108.31 45.2186 105.363 46.584C102.417 47.9494 98.7838 48.6357 94.4688 48.6357C90.7598 48.6357 87.5977 48.0884 84.9893 46.9912C82.3738 45.8975 80.4095 44.3825 79.1035 42.4355C77.7975 40.492 77.1426 38.1785 77.1426 35.5C77.1427 31.3657 78.5986 28.1126 81.5205 25.7441C84.4355 23.3687 89.2101 21.8504 95.834 21.1816L110.883 19.7461V17.7158C110.883 14.9223 110.061 12.794 108.417 11.3311C106.777 9.8717 104.346 9.14356 101.306 9.14355C98.2653 9.14355 95.942 9.82992 94.333 11.1953C92.7208 12.5606 91.8845 14.5249 91.8252 17.0742H77.9609C78.0829 11.6094 80.1938 7.41251 84.2998 4.49023C88.4059 1.5749 94.1591 0.11525 101.577 0.115234ZM241.212 0.119141C246.502 0.119141 251.03 1.08717 254.798 3.03418C258.57 4.97777 261.457 7.77851 263.463 11.4219H263.467C265.469 15.0721 266.473 19.3909 266.473 24.375C266.473 29.3592 265.473 33.6749 263.467 37.3252C261.461 40.9684 258.556 43.7517 254.757 45.6709C250.957 47.5866 246.558 48.5449 241.212 48.5449C235.866 48.5449 231.287 47.5691 227.494 45.6221C223.695 43.675 220.755 40.8954 218.693 37.2764C216.625 33.6574 215.59 29.3593 215.59 24.375C215.59 19.3907 216.625 15.0886 218.693 11.4697C220.759 7.85449 223.677 5.05437 227.445 3.08301C231.214 1.10467 235.922 0.119167 241.212 0.119141ZM57.5381 0.208984C62.762 0.209027 66.8093 1.59185 69.665 4.35742H69.6611C72.5169 7.12295 73.9482 10.9647 73.9482 15.8896V47.5342H60.2646V18.4463C60.2646 15.8307 59.6762 13.8279 58.4922 12.4277C57.3011 11.031 55.4653 10.3271 52.9717 10.3271C50.1752 10.3272 47.946 11.2122 46.2744 12.9746C44.6028 14.7371 43.7676 17.1651 43.7676 20.2686V47.5381H30.1816V18.4502C30.1816 15.8344 29.5539 13.8319 28.3105 12.4316C27.0603 11.0349 25.2253 10.3311 22.791 10.3311C19.9352 10.3311 17.7028 11.216 16.0938 12.9785C14.4813 14.741 13.6768 17.1997 13.6768 20.3623V47.5342H0V1.11816H10.957V5.13086L8.1709 9.41797H10.7373V9.41113C10.7515 9.38571 11.701 7.67936 12.0674 7.10547C13.3873 5.04693 15.4562 3.39592 17.915 2.12109C20.3738 0.846278 23.3379 0.208984 26.8066 0.208984C29.9061 0.209012 32.6119 0.787555 34.9209 1.94043C37.2299 3.10032 38.8323 4.64667 40.0547 6.59375L38.2119 9.41504H40.8105C41.1866 8.6732 41.3711 8.40486 41.8516 7.6875C43.3143 5.50015 45.3655 3.70587 48.0088 2.30566C50.6522 0.905441 53.829 0.208984 57.5381 0.208984ZM154.747 0.119141C157.544 0.119141 159.888 0.515593 161.769 1.30273V14.0723C159.275 13.2224 156.907 12.7969 154.657 12.7969C150.708 12.7969 147.605 13.9988 145.358 16.3984C143.109 18.7983 141.983 22.1881 141.983 26.5664V47.5381H128.035V1.11816H139.946L139.936 4.6748L137.201 9.41504H139.765C140.113 8.40154 140.319 7.9873 140.925 7.04004C142.339 4.82484 143.822 3.5393 146.222 2.16699C148.621 0.798182 151.467 0.119205 154.747 0.119141ZM98.293 28.7471C95.7371 28.9943 93.8984 29.5685 92.7734 30.4844C91.6486 31.3934 91.0909 32.5779 91.0908 34.0371C91.0908 35.803 91.6967 37.1411 92.9121 38.0537C94.1311 38.9628 95.8625 39.4189 98.1123 39.4189C100.54 39.4189 102.716 38.9803 104.628 38.0957C106.547 37.218 108.066 35.9846 109.19 34.4033C110.315 32.822 110.88 30.9409 110.88 28.75L110.876 28.7471V27.4336L98.293 28.7471ZM241.125 9.96191C238.757 9.96192 236.671 10.5439 234.881 11.7002C233.084 12.8531 231.743 14.4939 230.865 16.6221C229.981 18.7537 229.542 21.2479 229.542 24.2852C229.542 27.3223 229.995 29.9071 230.907 32.0352C231.823 34.1631 233.139 35.8037 234.877 36.96C236.608 38.1129 238.688 38.6914 241.122 38.6914C243.556 38.6913 245.653 38.1128 247.415 36.96C249.177 35.8036 250.483 34.1456 251.336 31.9863H251.34C252.19 29.8339 252.614 27.3292 252.614 24.2852C252.614 21.2409 252.193 18.673 251.34 16.5762C250.49 14.476 249.18 12.8531 247.418 11.7002C245.652 10.5404 243.493 9.96191 241.125 9.96191ZM185.151 11.1738C182.783 11.1739 180.697 11.6962 178.907 12.748C177.11 13.793 175.769 15.2774 174.892 17.207C174.007 19.1366 173.568 21.3935 173.568 24.1484C173.568 26.9036 174.021 29.2482 174.934 31.1709C175.849 33.1003 177.166 34.5839 178.903 35.6357C180.634 36.6807 182.714 37.2002 185.148 37.2002C187.583 37.2002 189.679 36.6807 191.441 35.6357C193.204 34.5873 194.51 33.0864 195.363 31.1289H195.366C196.216 29.1749 196.642 26.9036 196.642 24.1484C196.642 21.3933 196.219 19.0668 195.366 17.165C194.516 15.2633 193.208 13.793 191.445 12.748C189.68 11.6996 187.52 11.1738 185.151 11.1738Z" fill="white"/>
</svg>
